<?xml version="1.0" encoding="utf-8"?>
<!-- Generator: Adobe Illustrator 15.0.0, SVG Export Plug-In . SVG Version: 6.00 Build 0)  -->
<!DOCTYPE svg PUBLIC "-//W3C//DTD SVG 1.1//EN" "http://www.w3.org/Graphics/SVG/1.1/DTD/svg11.dtd">
<svg version="1.1" id="Layer_1" xmlns="http://www.w3.org/2000/svg" xmlns:xlink="http://www.w3.org/1999/xlink" x="0px" y="0px"
	 width="129.932px" height="61.164px" viewBox="0 0 129.932 61.164" enable-background="new 0 0 129.932 61.164"
	 xml:space="preserve">
<path fill="#757E96" d="M59.42,51.191L49.225,28.294v-9.029h-0.13c0.796,0,1.44-0.646,1.44-1.442c0-0.796-0.645-1.441-1.44-1.441
	H38.552c-0.794,0-1.439,0.645-1.439,1.441c0,0.796,0.646,1.442,1.439,1.442h-0.094l-0.076,9.029L27.674,51.16
	c-0.14,0.23-0.213,0.472-0.213,0.714c0,2.428,7.198,4.397,16.077,4.397s16.077-1.97,16.077-4.397
	C59.614,51.639,59.548,51.413,59.42,51.191 M43.537,52.814c-7.144,0-12.936-1.584-12.936-3.539c0-0.195,0.059-0.387,0.17-0.575
	l9.49-20.177V19.29h7.039v8.96l9.017,20.477c0.101,0.179,0.154,0.36,0.154,0.549C56.472,51.23,50.682,52.814,43.537,52.814"/>
<path fill="#00A0BE" d="M51.554,47.641l-2.566-5.945h-10.66l-2.799,5.932c-0.068,0.113-0.105,0.23-0.105,0.352
	c0,1.199,3.732,1.99,8.113,1.99c4.38,0,8.113-0.791,8.113-1.99C51.65,47.861,51.618,47.75,51.554,47.641"/>
<path fill="#00A0BE" d="M46.742,12.241c0,1.323-1.072,2.395-2.394,2.395c-1.322,0-2.395-1.072-2.395-2.395
	c0-1.323,1.072-2.396,2.395-2.396C45.67,9.845,46.742,10.917,46.742,12.241z"/>
<path fill="#00A0BE" d="M41.991,8.543c0,0.952-0.771,1.724-1.724,1.724c-0.951,0-1.724-0.772-1.724-1.724s0.771-1.725,1.724-1.725
	C41.219,6.819,41.991,7.591,41.991,8.543z"/>
<path fill="#00A0BE" d="M43.205,5.049c0,0.636-0.515,1.152-1.151,1.152s-1.152-0.516-1.152-1.152c0-0.636,0.516-1.152,1.152-1.152
	C42.689,3.897,43.205,4.414,43.205,5.049z"/>
<path fill="#FF4A4A" d="M11.59,47.212h13.674v6.839H3.032V17.146h8.558V47.212z"/>
<path fill="#FF4A4A" d="M63.045,54.051V17.146h13.571c2.549,0,4.718,0.236,6.507,0.709s3.249,1.139,4.38,2
	c1.13,0.862,1.954,1.909,2.469,3.141c0.515,1.233,0.772,2.608,0.772,4.129c0,0.828-0.118,1.625-0.354,2.393
	c-0.237,0.77-0.607,1.491-1.115,2.166c-0.506,0.676-1.156,1.289-1.949,1.836c-0.793,0.549-1.747,1.026-2.861,1.432
	c2.432,0.592,4.229,1.55,5.394,2.875c1.165,1.326,1.747,3.027,1.747,5.104c0,1.57-0.305,3.032-0.912,4.381
	c-0.608,1.353-1.498,2.529-2.671,3.534s-2.62,1.79-4.342,2.355c-1.723,0.565-3.688,0.849-5.9,0.849H63.045V54.051z M71.603,32.673
	h4.457c0.944,0,1.798-0.067,2.557-0.203c0.76-0.135,1.405-0.37,1.938-0.709c0.531-0.337,0.937-0.802,1.216-1.393
	c0.277-0.59,0.418-1.334,0.418-2.229c0-0.878-0.11-1.608-0.329-2.191c-0.22-0.583-0.559-1.051-1.013-1.406
	c-0.456-0.355-1.034-0.608-1.735-0.76c-0.7-0.152-1.531-0.229-2.494-0.229h-5.013L71.603,32.673L71.603,32.673z M71.603,38.396
	v9.194h6.025c1.131,0,2.056-0.143,2.772-0.431c0.718-0.286,1.279-0.658,1.684-1.114c0.405-0.456,0.685-0.971,0.836-1.545
	c0.152-0.574,0.229-1.155,0.229-1.748c0-0.676-0.089-1.284-0.268-1.823c-0.177-0.541-0.479-0.998-0.911-1.369
	c-0.431-0.371-0.999-0.658-1.709-0.86c-0.71-0.204-1.604-0.304-2.684-0.304H71.603L71.603,38.396z"/>
<path fill="#00A0BE" d="M104.973,50.536h2.153v2.5c0,0.221-0.073,0.413-0.223,0.575c-0.148,0.162-0.362,0.244-0.639,0.244h-1.292
	v4.812h-3.878v-4.812h-8.416c-0.278,0-0.529-0.086-0.755-0.258c-0.225-0.173-0.365-0.389-0.423-0.646l-0.46-2.199l9.681-13.018
	h4.251V50.536z M101.095,45.076c0-0.334,0.011-0.697,0.035-1.084c0.023-0.389,0.061-0.788,0.107-1.2l-5.529,7.744h5.387V45.076z"/>
<path fill="#00A0BE" d="M118.042,54.831c0.651,0,1.232-0.106,1.745-0.323c0.512-0.215,0.945-0.523,1.3-0.927
	c0.354-0.401,0.624-0.894,0.812-1.472c0.187-0.579,0.28-1.238,0.28-1.977V37.734h4.854v12.398c0,1.284-0.208,2.461-0.625,3.535
	c-0.416,1.072-1.012,1.997-1.788,2.771c-0.775,0.776-1.719,1.379-2.829,1.812c-1.111,0.431-2.36,0.646-3.749,0.646
	c-1.397,0-2.651-0.215-3.763-0.646c-1.11-0.433-2.054-1.035-2.829-1.812c-0.775-0.774-1.369-1.699-1.781-2.771
	c-0.413-1.073-0.618-2.251-0.618-3.535V37.734h4.855v12.385c0,0.736,0.093,1.396,0.279,1.977c0.187,0.579,0.457,1.072,0.812,1.479
	c0.354,0.408,0.787,0.719,1.3,0.934C116.809,54.725,117.391,54.831,118.042,54.831z"/>
</svg>
